<?xml version="1.0" encoding="UTF-8"?> <svg xmlns="http://www.w3.org/2000/svg" width="65" height="64" viewBox="0 0 65 64" fill="none"> <path d="M26.125 5.9999H34.125V8.9999H26.125V5.9999Z" fill="#249D55"></path> <path d="M42.1181 31.6665C39.6191 31.6665 39.6191 28.9999 37.1201 28.9999C34.6211 28.9999 34.621 31.6665 32.122 31.6665C29.623 31.6665 29.6223 28.9999 27.1226 28.9999C24.6229 28.9999 24.6243 31.6665 22.126 31.6665C19.6255 31.6665 19.6255 28.9999 17.125 28.9999C14.6227 28.9999 14.6227 31.6665 12.1205 31.6665C9.61829 31.6665 9.61829 28.9999 7.11609 28.9999V59.9999H46.1161V29.1793C44.5615 29.7714 44.2277 31.6665 42.1181 31.6665V31.6665Z" fill="#249D55"></path> <path d="M52.1205 31.6665C50.0076 31.6665 49.6738 29.7706 48.1162 29.1789V59.9999H57.125V28.9999C54.6227 28.9999 54.6227 31.6665 52.1205 31.6665Z" fill="#249D55"></path> <path d="M22.126 29.6664C22.4502 29.6664 22.5566 29.6146 23.1641 28.9657C23.6275 28.3548 24.226 27.8595 24.9127 27.5185C25.5994 27.1775 26.3557 27 27.1225 26.9999C27.8892 26.9999 28.6456 27.1773 29.3323 27.5182C30.0191 27.8592 30.6176 28.3544 31.0811 28.9652C31.6844 29.6093 31.796 29.6652 32.115 29.6658C31.7613 27.6043 31.8665 25.4902 32.4229 23.474C33.0939 20.7149 34.6347 18.2449 36.8176 16.4289C35.8174 15.3136 34.5452 14.4767 33.125 13.9999V10.9999H27.125V13.9999C25.3778 14.5823 23.8582 15.6997 22.7813 17.1937C21.7044 18.6878 21.125 20.4828 21.125 22.3245V29.007C21.6672 29.5827 21.795 29.6664 22.126 29.6664V29.6664Z" fill="#249D55"></path> <path d="M51.0771 28.9647C51.6611 29.5878 51.7783 29.6664 52.1201 29.6664C52.4619 29.6664 52.5801 29.5878 53.165 28.9643C53.3694 28.7463 53.6076 28.4979 53.884 28.2521C54.754 23.7964 53.203 19.7247 50.2065 18.9221C49.1291 18.6593 47.9927 18.7998 47.0117 19.3171C47.1746 18.2986 47.6697 17.3625 48.4199 16.6546C48.7987 16.3677 49.2345 16.1652 49.6981 16.0607C50.1616 15.9563 50.6422 15.9523 51.1074 16.0491C51.2386 16.0693 51.3725 16.0631 51.5013 16.0309C51.6301 15.9988 51.7512 15.9413 51.8576 15.8619C51.964 15.7825 52.0534 15.6827 52.1208 15.5683C52.1882 15.4539 52.2321 15.3272 52.2501 15.1957C52.268 15.0642 52.2595 14.9304 52.2252 14.8022C52.1909 14.6739 52.1314 14.5538 52.0502 14.4488C51.9689 14.3438 51.8676 14.256 51.7521 14.1906C51.6366 14.1252 51.5092 14.0834 51.3774 14.0677C50.6397 13.9307 49.8814 13.9527 49.1529 14.132C48.4244 14.3113 47.7425 14.644 47.1527 15.1077C46.0679 16.0824 45.3359 17.3885 45.0707 18.8226C44.4793 17.8689 43.5565 17.1672 42.4795 16.8521C39.2787 15.9944 35.6411 19.1913 34.3546 23.9921C33.9806 25.3632 33.8398 26.7874 33.9381 28.2052C34.8072 27.4139 35.9448 26.983 37.1201 26.9999C37.8851 27.0091 38.6383 27.1906 39.3235 27.531C40.0087 27.8713 40.6085 28.3617 41.0781 28.9657C41.6865 29.6146 41.793 29.6664 42.1181 29.6664C42.4432 29.6664 42.5497 29.6146 43.1581 28.9657C43.6217 28.3549 44.2203 27.8596 44.9072 27.5185C45.594 27.1775 46.3504 27 47.1173 26.9999C47.8841 26.9998 48.6406 27.1771 49.3275 27.518C50.0145 27.8588 50.6132 28.354 51.077 28.9647H51.0771Z" fill="#249D55"></path> <path d="M11.0771 28.9647C11.6611 29.5878 11.7783 29.6664 12.1201 29.6664C12.4619 29.6664 12.5801 29.5878 13.165 28.9643C13.6351 28.3605 14.2353 27.8703 14.9208 27.5302C15.6064 27.1902 16.3598 27.0089 17.125 26.9999C17.8145 26.9917 18.4974 27.1355 19.125 27.4213V22.3246C19.131 20.567 19.5686 18.8378 20.3994 17.289C17.0928 8.838 12.9778 3.2993 10.095 4.0717C6.52128 5.0293 6.14498 15.3206 9.12568 27.4256C9.87184 27.8041 10.5352 28.3273 11.0771 28.9647V28.9647ZM16.6182 17.5447C16.8694 17.6297 17.0766 17.811 17.1941 18.0487C17.3117 18.2864 17.33 18.5611 17.2451 18.8123L14.9336 25.6428C14.8926 25.7686 14.8271 25.8849 14.7409 25.9852C14.6546 26.0855 14.5493 26.1677 14.4311 26.227C14.3129 26.2863 14.1841 26.3215 14.0521 26.3307C13.9202 26.3399 13.7877 26.3228 13.6624 26.2804C13.5371 26.238 13.4215 26.1712 13.3222 26.0839C13.2229 25.9965 13.1419 25.8903 13.0839 25.7714C13.026 25.6525 12.9921 25.5233 12.9844 25.3913C12.9767 25.2593 12.9953 25.127 13.0391 25.0022L15.3506 18.1716C15.4357 17.9205 15.617 17.7134 15.8547 17.5959C16.0923 17.4783 16.3669 17.4599 16.6182 17.5446V17.5447ZM10.71 17.3091L13.02 10.4785C13.1071 10.2301 13.2887 10.026 13.5253 9.91059C13.762 9.79519 14.0346 9.77776 14.284 9.86209C14.5334 9.94643 14.7395 10.1257 14.8575 10.361C14.9755 10.5964 14.996 10.8688 14.9145 11.1191L12.605 17.9499C12.564 18.0757 12.4985 18.192 12.4123 18.2923C12.326 18.3926 12.2207 18.4748 12.1025 18.5341C11.9843 18.5934 11.8555 18.6286 11.7235 18.6378C11.5916 18.647 11.4591 18.6299 11.3338 18.5875C11.2085 18.5451 11.0929 18.4783 10.9936 18.391C10.8943 18.3036 10.8133 18.1974 10.7553 18.0785C10.6974 17.9596 10.6635 17.8304 10.6558 17.6984C10.6481 17.5664 10.6667 17.4341 10.7105 17.3093L10.71 17.3091Z" fill="#249D55"></path> </svg> 