<?xml version="1.0" encoding="UTF-8"?> <!-- Generator: Adobe Illustrator 26.0.3, SVG Export Plug-In . SVG Version: 6.00 Build 0) --> <svg xmlns="http://www.w3.org/2000/svg" xmlns:xlink="http://www.w3.org/1999/xlink" id="Layer_1" x="0px" y="0px" viewBox="0 0 64 64" style="enable-background:new 0 0 64 64;" xml:space="preserve"> <style type="text/css"> .st0{fill:#259C54;} </style> <g> <g> <path class="st0" d="M8.4,63C7,62.4,7.1,61.1,7,59.9c-0.4-3.6-0.8-7.2-1.2-10.8c-0.4-3.5-0.7-7-1.1-10.4c-0.2-1.6-0.4-3.2-0.6-4.9 c0-0.1,0-0.3,0-0.4c0.1,0,0.1,0,0.2,0c0.1,0.2,0.2,0.3,0.2,0.5c2.1,5.9,6.3,9.6,12.5,10.6c3.6,0.6,7.3,0.6,10.8-0.7 c4.7-1.7,8-5.1,9.7-9.8c0.1-0.2,0.1-0.4,0.2-0.6c0.1,0,0.2,0,0.2,0.1c-0.5,5-1.1,10-1.7,15.1c-0.3,0-0.6,0-0.8,0 c-1.8,0-3.6-0.1-5.3,0.1c-2.1,0.2-3.5,1.5-4.2,3.4c-0.9,2.5-1.7,5.1-2.6,7.6c-0.4,1.1-0.2,2.3,0,3.4C18.3,63,13.4,63,8.4,63z"></path> </g> <g> <path class="st0" d="M27.9,63c-1.3-0.9-1.5-1.4-1-3c0.7-2.2,1.4-4.3,2.2-6.5c0.4-1.1,0.9-1.4,2-1.4c9.1,0,18.3,0,27.4,0 c1.2,0,1.7,0.4,2.1,1.5c0.8,2.3,1.5,4.5,2.3,6.8c0,0.1,0.1,0.2,0.1,0.3c0,0.3,0,0.6,0,1c-0.3,0.6-0.7,1.1-1.3,1.3 C50.4,63,39.1,63,27.9,63z"></path> </g> <g> <path class="st0" d="M61.7,63c0.6-0.3,1.1-0.7,1.3-1.3c0,0.4,0,0.9,0,1.3C62.6,63,62.1,63,61.7,63z"></path> </g> <g> <path class="st0" d="M46.7,48.4c-1.2,0-2.4,0-3.6,0c0-0.2,0-0.4,0-0.6c0-14.9,0-29.8,0-44.7C43,1.8,43.7,1,44.9,1 c0.9,0,1.7,0.8,1.7,1.7c0,0.2,0,0.4,0,0.6c0,14.8,0,29.6,0,44.4C46.7,47.9,46.7,48.2,46.7,48.4z"></path> </g> <g> <path class="st0" d="M8.2,33.4c8.5,0,17,0,25.6,0c-0.5,0.9-0.9,1.8-1.5,2.6c-2.4,3.3-5.6,5-9.7,5.1c-2.1,0.1-4.3,0.2-6.4-0.4 c-3.6-1.1-6.3-3.3-7.9-6.8c0-0.1-0.1-0.2-0.1-0.3C8.2,33.5,8.2,33.5,8.2,33.4z"></path> </g> <g> <path class="st0" d="M21,29.7c-5.9,0-11.8,0-17.7,0c-0.4,0-0.7,0-1.1-0.1c-0.8-0.3-1.3-1.1-1.2-2c0.1-0.8,0.8-1.5,1.7-1.5 c0.1,0,0.3,0,0.4,0c11.9,0,23.8,0,35.6,0c1.1,0,1.8,0.4,2.1,1.4c0.3,1-0.4,2.1-1.4,2.2c-0.3,0-0.6,0-0.8,0 C32.7,29.7,26.8,29.7,21,29.7z"></path> </g> </g> </svg> 