<?xml version="1.0" encoding="UTF-8"?> <svg xmlns="http://www.w3.org/2000/svg" width="65" height="64" viewBox="0 0 65 64" fill="none"> <path d="M61.2422 2C60.2706 2 59.4844 2.78621 59.4844 3.75781V5.51562H6.51562V3.75781C6.51562 2.78621 5.72941 2 4.75781 2C3.78621 2 3 2.78621 3 3.75781V60.2422C3 61.2138 3.78621 62 4.75781 62C5.72941 62 6.51562 61.2138 6.51562 60.2422V58.4844H59.4844V60.2422C59.4844 61.2138 60.2706 62 61.2422 62C62.2138 62 63 61.2138 63 60.2422C63 48.9871 63 15.0168 63 3.75781C63 2.78621 62.2138 2 61.2422 2ZM6.51562 30.2422H59.4844V47.8203H6.51562V30.2422ZM59.4844 9.03125V26.7266H6.51562V9.03125H59.4844Z" fill="#249D55"></path> <path d="M22.4531 33.7578H15.4219C14.4503 33.7578 13.6641 34.544 13.6641 35.5156V44.3047H24.2109V35.5156C24.2109 34.544 23.4247 33.7578 22.4531 33.7578Z" fill="#249D55"></path> <path d="M36.5156 33.7578H29.4844C28.5128 33.7578 27.7266 34.544 27.7266 35.5156V44.3047H38.2734V35.5156C38.2734 34.544 37.4872 33.7578 36.5156 33.7578Z" fill="#249D55"></path> <path d="M50.5781 33.7578H43.5469C42.5753 33.7578 41.7891 34.544 41.7891 35.5156V44.3047H52.3359V35.5156C52.3359 34.544 51.5497 33.7578 50.5781 33.7578Z" fill="#249D55"></path> <path d="M48.8203 18.2613V14.4219C48.8203 13.4503 48.0341 12.6641 47.0625 12.6641C46.0909 12.6641 45.3047 13.4503 45.3047 14.4219V18.2613C43.263 18.9894 41.7891 20.9223 41.7891 23.2109H52.3359C52.3359 20.9223 50.862 18.9894 48.8203 18.2613Z" fill="#249D55"></path> <path d="M34.7578 18.2613V14.4219C34.7578 13.4503 33.9716 12.6641 33 12.6641C32.0284 12.6641 31.2422 13.4503 31.2422 14.4219V18.2613C29.2005 18.9894 27.7266 20.9223 27.7266 23.2109H38.2734C38.2734 20.9223 36.7995 18.9894 34.7578 18.2613Z" fill="#249D55"></path> <path d="M24.2109 23.2109C24.2109 20.9223 22.737 18.9894 20.6953 18.2613V14.4219C20.6953 13.4503 19.9091 12.6641 18.9375 12.6641C17.9659 12.6641 17.1797 13.4503 17.1797 14.4219V18.2613C15.138 18.9894 13.6641 20.9223 13.6641 23.2109H24.2109Z" fill="#249D55"></path> </svg> 