<?xml version="1.0" encoding="UTF-8"?> <svg xmlns="http://www.w3.org/2000/svg" width="65" height="64" viewBox="0 0 65 64" fill="none"> <path d="M48.5615 56.3877H45.7235C43.8096 55.3443 42.3281 53.7506 41.4332 51.8555H23.3168C22.4218 53.7506 20.9403 55.3443 19.0265 56.3877H16.1885C15.2945 56.3877 14.5698 57.1124 14.5698 58.0063C14.5698 58.9003 15.2945 59.625 16.1885 59.625H48.5615C49.4555 59.625 50.1802 58.9003 50.1802 58.0063C50.1802 57.1124 49.4555 56.3877 48.5615 56.3877Z" fill="#249D55"></path> <path d="M33.9937 41.604C33.9937 42.4979 33.2689 43.2227 32.375 43.2227C31.4811 43.2227 30.7563 42.4979 30.7563 41.604V39.9854H4.75V42.6831C4.75 45.9557 7.41247 48.6182 10.6851 48.6182H54.0649C57.3375 48.6182 60 45.9557 60 42.6831V39.9854H33.9937V41.604Z" fill="#249D55"></path> <path d="M29.6772 35.1294C29.6772 35.7227 29.8728 36.2818 30.235 36.748H34.515C34.8772 36.2818 35.0728 35.7227 35.0728 35.1294C35.0728 33.6419 33.8625 32.4316 32.375 32.4316C30.8875 32.4316 29.6772 33.6419 29.6772 35.1294Z" fill="#249D55"></path> <path d="M24.1894 32.4035C23.9691 33.0646 23.3505 33.5107 22.6536 33.5107H21.0444V36.748H26.671C26.52 36.2257 26.4399 35.6816 26.4399 35.1294C26.4399 31.8568 29.1024 29.1943 32.375 29.1943C35.6476 29.1943 38.3101 31.8568 38.3101 35.1294C38.3101 35.6816 38.23 36.2257 38.079 36.748H43.7056V33.5107H42.0964C41.3995 33.5107 40.7809 33.0646 40.5606 32.4035C40.1929 31.299 39.6092 30.2915 38.8257 29.4088C38.3629 28.8874 38.2859 28.1285 38.6344 27.5249L39.442 26.1261L36.6384 24.5075L35.8375 25.8947C35.4893 26.4978 34.794 26.8105 34.1121 26.6713C32.9754 26.4394 31.7745 26.4394 30.6378 26.6713C29.9559 26.8104 29.2606 26.4977 28.9124 25.8947L28.1115 24.5075L25.3079 26.1261L26.1155 27.5249C26.464 28.1285 26.387 28.8874 25.9242 29.4088C25.1408 30.2915 24.557 31.299 24.1894 32.4035V32.4035Z" fill="#249D55"></path> <path d="M54.0649 4.375H10.6851C7.41247 4.375 4.75 7.03747 4.75 10.3101V36.748H17.8071V31.8921C17.8071 30.9982 18.5319 30.2734 19.4258 30.2734H21.5492C21.8792 29.5386 22.2833 28.841 22.7588 28.1856L21.6949 26.3429C21.4803 25.9712 21.4221 25.5293 21.5332 25.1147C21.6442 24.7 21.9155 24.3465 22.2873 24.1318L27.8946 20.8945C28.2663 20.6798 28.7081 20.6215 29.1228 20.7328C29.5375 20.8438 29.891 21.1151 30.1056 21.487L31.1644 23.3206C31.9681 23.2389 32.7817 23.2389 33.5855 23.3206L34.6442 21.487C34.8589 21.1152 35.2124 20.8439 35.6271 20.7328C36.0419 20.6217 36.4836 20.6799 36.8553 20.8945L42.4625 24.1318C42.8343 24.3465 43.1056 24.7 43.2167 25.1147C43.3279 25.5294 43.2697 25.9713 43.055 26.3429L41.9911 28.1856C42.4666 28.841 42.8708 29.5386 43.2007 30.2734H45.3242C46.2181 30.2734 46.9429 30.9982 46.9429 31.8921V36.748H60V10.3101C60 7.03747 57.3375 4.375 54.0649 4.375V4.375ZM51.9067 20.5615H43.166C42.2721 20.5615 41.5474 19.8368 41.5474 18.9429C41.5474 18.0489 42.2721 17.3242 43.166 17.3242H51.9067C52.8007 17.3242 53.5254 18.0489 53.5254 18.9429C53.5254 19.8368 52.8007 20.5615 51.9067 20.5615ZM51.9067 14.0869H38.8496C37.9557 14.0869 37.231 13.3622 37.231 12.4683C37.231 11.5743 37.9557 10.8496 38.8496 10.8496H51.9067C52.8007 10.8496 53.5254 11.5743 53.5254 12.4683C53.5254 13.3622 52.8007 14.0869 51.9067 14.0869Z" fill="#249D55"></path> </svg> 