<?xml version="1.0" encoding="UTF-8"?> <svg xmlns="http://www.w3.org/2000/svg" width="65" height="64" viewBox="0 0 65 64" fill="none"> <g clip-path="url(#clip0_348_2800)"> <path d="M47.875 9.37537H40.375V3.75037C40.375 2.71487 39.5355 1.87537 38.5 1.87537H27.25C26.2145 1.87537 25.375 2.71487 25.375 3.75037V9.37537H17.875C16.8395 9.37537 16 10.2149 16 11.2504V16.8754H49.75V11.2504C49.75 10.2149 48.9105 9.37537 47.875 9.37537V9.37537ZM36.625 9.37537H29.125V5.62537H36.625V9.37537Z" fill="#249D55"></path> <path d="M34.75 24.3754C34.75 25.4109 33.9105 26.2504 32.875 26.2504C31.8395 26.2504 31 25.4109 31 24.3754V20.6254H16V31.2504C16 33.6627 17.9626 35.6254 20.375 35.6254H45.375C47.7874 35.6254 49.75 33.6627 49.75 31.2504V20.6254H34.75V24.3754Z" fill="#249D55"></path> <path d="M12.0796 38.8301L4.625 46.2848V42.0612C4.625 41.0257 3.7855 40.1862 2.75 40.1862C1.7145 40.1862 0.875 41.0257 0.875 42.0612V50.8112C0.875 51.8467 1.7145 52.6862 2.75 52.6862H11.5C12.5355 52.6862 13.375 51.8467 13.375 50.8112C13.375 49.7757 12.5355 48.9362 11.5 48.9362H7.27663L14.7312 41.4816C15.4635 40.7495 15.4635 39.5623 14.7312 38.83C13.9991 38.0979 12.8119 38.0979 12.0796 38.8301V38.8301Z" fill="#249D55"></path> <path d="M63 40.1862C61.9645 40.1862 61.125 41.0257 61.125 42.0612V46.2848L53.6704 38.8301C52.9383 38.098 51.751 38.098 51.0188 38.8301C50.2865 39.5622 50.2865 40.7495 51.0188 41.4817L58.4734 48.9364H54.25C53.2145 48.9364 52.375 49.7759 52.375 50.8114C52.375 51.8469 53.2145 52.6864 54.25 52.6864H63C64.0355 52.6864 64.875 51.8469 64.875 50.8114V42.0614C64.875 41.0257 64.0355 40.1862 63 40.1862V40.1862Z" fill="#249D55"></path> <path d="M37.7364 52.7375L34.7501 55.7238V44.6254C34.7501 43.5899 33.9106 42.7504 32.8751 42.7504C31.8396 42.7504 31.0001 43.5899 31.0001 44.6254V55.7238L28.0137 52.7375C27.2816 52.0054 26.0943 52.0054 25.3621 52.7375C24.6298 53.4696 24.6298 54.6569 25.3621 55.3891L31.5489 61.576C32.2808 62.308 33.4699 62.3074 34.2012 61.576L40.3881 55.3891C41.1203 54.657 41.1203 53.4697 40.3881 52.7375C39.6558 52.0051 38.4687 52.0051 37.7364 52.7375Z" fill="#249D55"></path> </g> <defs> <clipPath id="clip0_348_2800"> <rect width="64" height="64" fill="white" transform="translate(0.875)"></rect> </clipPath> </defs> </svg> 