<?xml version="1.0" encoding="UTF-8"?> <svg xmlns="http://www.w3.org/2000/svg" width="65" height="64" viewBox="0 0 65 64" fill="none"> <g clip-path="url(#clip0_348_2861)"> <path d="M63.3739 16.0443L33.2489 5.41538C32.8452 5.27288 32.4049 5.27288 32.0013 5.41538L1.87625 16.0443C1.12725 16.3085 0.626001 17.016 0.625001 17.8103C0.624001 18.6045 1.12363 19.3131 1.872 19.5791L31.997 30.2888C32.2001 30.361 32.4126 30.3971 32.625 30.3971C32.8375 30.3971 33.0499 30.361 33.253 30.2888L63.378 19.5791C64.1264 19.3131 64.6259 18.6045 64.625 17.8103C64.624 17.016 64.1227 16.3085 63.3739 16.0443V16.0443Z" fill="#249D55"></path> <path d="M60.1216 38V24.7167L56.3716 26.0499V38C55.2421 38.6501 54.481 39.8683 54.481 41.2651C54.481 42.6619 55.2421 43.8801 56.3716 44.5303V49.3165C56.3716 50.352 57.2111 51.1915 58.2466 51.1915C59.2821 51.1915 60.1216 50.352 60.1216 49.3165V44.5304C61.2511 43.8804 62.0122 42.662 62.0122 41.2653C62.0122 39.8684 61.2512 38.6501 60.1216 38Z" fill="#249D55"></path> <path d="M32.625 34.1471C31.9814 34.1471 31.3475 34.0378 30.7409 33.8221L13.8055 27.8015L13.8055 38.5001C13.8055 40.5187 15.9114 42.2258 20.0647 43.5738C23.6848 44.7488 28.1455 45.3959 32.625 45.3959C37.1045 45.3959 41.5652 44.7488 45.1854 43.5738C49.3387 42.2258 51.4445 40.5187 51.4445 38.5001V27.8015L34.5093 33.8221C33.9025 34.0378 33.2687 34.1471 32.625 34.1471Z" fill="#249D55"></path> </g> <defs> <clipPath id="clip0_348_2861"> <rect width="64" height="64" fill="white" transform="translate(0.625)"></rect> </clipPath> </defs> </svg> 