<?xml version="1.0" encoding="UTF-8"?> <svg xmlns="http://www.w3.org/2000/svg" width="55" height="55" viewBox="0 0 55 55" fill="none"> <path d="M47.4822 3.39722V0H22.6116V3.41451H15.7156V23.9467C19.7514 26.1409 22.4968 30.4194 22.4968 35.3272C22.4968 38.2433 20.5839 43.0029 16.6486 49.878C16.3358 50.4246 16.0237 50.96 15.7156 51.4815V54.5804H33.465V44.1799H36.8563V54.5804H54.2648V3.42021L47.4822 3.39722ZM30.0734 40.5334H26.6819V37.1421H30.0734V40.5334ZM30.0734 33.7504H26.6819V30.3591H30.0734V33.7504ZM30.0734 27.1234H26.6819V23.7321H30.0734V27.1234ZM36.8564 40.5334H33.4648V37.1421H36.8564V40.5334ZM36.8564 33.7504H33.4648V30.3591H36.8564V33.7504ZM36.8564 27.1234H33.4648V23.7321H36.8564V27.1234ZM40.2478 19.21H36.8565V15.2533H33.4647V19.21H30.0734V7.90518H33.4647V11.862H36.8565V7.90518H40.2478V19.21ZM43.6394 40.5334H40.2479V37.1421H43.6394V40.5334ZM43.6394 33.7504H40.2479V30.3591H43.6394V33.7504ZM43.6394 27.1234H40.2479V23.7321H43.6394V27.1234Z" fill="#249D55"></path> <path d="M9.55286 25.7745C4.28553 25.7745 0.000152588 30.0599 0.000152588 35.3271C0.000152588 36.6074 0.700328 39.9789 5.39005 48.1752C6.92854 50.8643 8.48025 53.3371 9.55286 55C10.6254 53.3371 12.1772 50.8643 13.7157 48.1752C18.4053 39.9789 19.1056 36.6073 19.1056 35.3271C19.1055 30.0597 14.8202 25.7745 9.55286 25.7745ZM9.55286 41.624C6.08066 41.624 3.25579 38.7992 3.25579 35.327C3.25579 31.8548 6.08055 29.0299 9.55286 29.0299C13.0251 29.0299 15.8499 31.8548 15.8499 35.327C15.8499 38.7992 13.0251 41.624 9.55286 41.624Z" fill="#249D55"></path> <path d="M9.55307 32.4213C7.95087 32.4213 6.64731 33.7248 6.64731 35.3271C6.64731 36.9294 7.95076 38.2328 9.55307 38.2328C11.1554 38.2328 12.4588 36.9294 12.4588 35.3271C12.4588 33.7249 11.1552 32.4213 9.55307 32.4213Z" fill="#249D55"></path> </svg> 